<svg viewBox="0 0 300 300" xmlns="http://www.w3.org/2000/svg" height="1024" width="1024"><svg xmlns="http://www.w3.org/2000/svg"><svg width="300" height="300"><defs style="transform: scale(1) translate(0px, 0px);"><clipPath id="clip-path-dot-color"><path d="M 19 100v 9h 4.5a 4.5 4.5, 0, 0, 0, 0 -9" transform="rotate(-90,23.5,104.5)"/><rect x="19" y="109" width="9" height="9" transform="rotate(0,23.5,113.5)"/><rect x="19" y="118" width="9" height="9" transform="rotate(0,23.5,122.5)"/><path d="M 19 127v 9h 9a 9 9, 0, 0, 0, -9 -9" transform="rotate(180,23.5,131.5)"/><path d="M 19 145v 9h 9a 9 9, 0, 0, 0, -9 -9" transform="rotate(-90,23.5,149.5)"/><path d="M 19 154v 9h 4.5a 4.5 4.5, 0, 0, 0, 0 -9" transform="rotate(90,23.5,158.5)"/><circle cx="23.5" cy="176.5" r="4.5" transform="rotate(0,23.5,176.5)"/><path d="M 19 190v 9h 4.5a 4.5 4.5, 0, 0, 0, 0 -9" transform="rotate(-90,23.5,194.5)"/><path d="M 19 199v 9h 9a 9 9, 0, 0, 0, -9 -9" transform="rotate(180,23.5,203.5)"/><path d="M 28 109v 9h 4.5a 4.5 4.5, 0, 0, 0, 0 -9" transform="rotate(0,32.5,113.5)"/><path d="M 28 127v 9h 9a 9 9, 0, 0, 0, -9 -9" transform="rotate(0,32.5,131.5)"/><rect x="28" y="136" width="9" height="9" transform="rotate(0,32.5,140.5)"/><path d="M 28 145v 9h 9a 9 9, 0, 0, 0, -9 -9" transform="rotate(90,32.5,149.5)"/><path d="M 28 181v 9h 4.5a 4.5 4.5, 0, 0, 0, 0 -9" transform="rotate(180,32.5,185.5)"/><rect x="28" y="199" width="9" height="9" transform="rotate(0,32.5,203.5)"/><path d="M 37 100v 9h 4.5a 4.5 4.5, 0, 0, 0, 0 -9" transform="rotate(180,41.5,104.5)"/><circle cx="41.5" cy="122.5" r="4.5" transform="rotate(0,41.5,122.5)"/><path d="M 37 136v 9h 4.5a 4.5 4.5, 0, 0, 0, 0 -9" transform="rotate(0,41.5,140.5)"/><path d="M 37 163v 9h 4.5a 4.5 4.5, 0, 0, 0, 0 -9" transform="rotate(-90,41.5,167.5)"/><rect x="37" y="172" width="9" height="9" transform="rotate(0,41.5,176.5)"/><rect x="37" y="181" width="9" height="9" transform="rotate(0,41.5,185.5)"/><rect x="37" y="190" width="9" height="9" transform="rotate(0,41.5,194.5)"/><rect x="37" y="199" width="9" height="9" transform="rotate(0,41.5,203.5)"/><path d="M 46 91v 9h 4.5a 4.5 4.5, 0, 0, 0, 0 -9" transform="rotate(-90,50.5,95.5)"/><rect x="46" y="100" width="9" height="9" transform="rotate(0,50.5,104.5)"/><path d="M 46 145v 9h 4.5a 4.5 4.5, 0, 0, 0, 0 -9" transform="rotate(180,50.5,149.5)"/><path d="M 46 172v 9h 4.5a 4.5 4.5, 0, 0, 0, 0 -9" transform="rotate(0,50.5,176.5)"/><path d="M 46 199v 9h 4.5a 4.5 4.5, 0, 0, 0, 0 -9" transform="rotate(0,50.5,203.5)"/><path d="M 55 100v 9h 9a 9 9, 0, 0, 0, -9 -9" transform="rotate(0,59.5,104.5)"/><rect x="55" y="109" width="9" height="9" transform="rotate(0,59.5,113.5)"/><rect x="55" y="118" width="9" height="9" transform="rotate(0,59.5,122.5)"/><rect x="55" y="127" width="9" height="9" transform="rotate(0,59.5,131.5)"/><rect x="55" y="136" width="9" height="9" transform="rotate(0,59.5,140.5)"/><rect x="55" y="145" width="9" height="9" transform="rotate(0,59.5,149.5)"/><path d="M 55 163v 9h 4.5a 4.5 4.5, 0, 0, 0, 0 -9" transform="rotate(180,59.5,167.5)"/><path d="M 55 181v 9h 4.5a 4.5 4.5, 0, 0, 0, 0 -9" transform="rotate(180,59.5,185.5)"/><path d="M 64 91v 9h 4.5a 4.5 4.5, 0, 0, 0, 0 -9" transform="rotate(180,68.5,95.5)"/><rect x="64" y="109" width="9" height="9" transform="rotate(0,68.5,113.5)"/><path d="M 64 118v 9h 9a 9 9, 0, 0, 0, -9 -9" transform="rotate(90,68.5,122.5)"/><path d="M 64 136v 9h 9a 9 9, 0, 0, 0, -9 -9" transform="rotate(0,68.5,140.5)"/><rect x="64" y="145" width="9" height="9" transform="rotate(0,68.5,149.5)"/><rect x="64" y="163" width="9" height="9" transform="rotate(0,68.5,167.5)"/><rect x="64" y="172" width="9" height="9" transform="rotate(0,68.5,176.5)"/><rect x="64" y="181" width="9" height="9" transform="rotate(0,68.5,185.5)"/><path d="M 64 199v 9h 4.5a 4.5 4.5, 0, 0, 0, 0 -9" transform="rotate(180,68.5,203.5)"/><rect x="73" y="91" width="9" height="9" transform="rotate(0,77.5,95.5)"/><rect x="73" y="109" width="9" height="9" transform="rotate(0,77.5,113.5)"/><path d="M 73 127v 9h 4.5a 4.5 4.5, 0, 0, 0, 0 -9" transform="rotate(180,77.5,131.5)"/><rect x="73" y="145" width="9" height="9" transform="rotate(0,77.5,149.5)"/><path d="M 73 163v 9h 4.5a 4.5 4.5, 0, 0, 0, 0 -9" transform="rotate(0,77.5,167.5)"/><path d="M 73 181v 9h 4.5a 4.5 4.5, 0, 0, 0, 0 -9" transform="rotate(0,77.5,185.5)"/><rect x="73" y="199" width="9" height="9" transform="rotate(0,77.5,203.5)"/><path d="M 82 91v 9h 4.5a 4.5 4.5, 0, 0, 0, 0 -9" transform="rotate(0,86.5,95.5)"/><path d="M 82 109v 9h 4.5a 4.5 4.5, 0, 0, 0, 0 -9" transform="rotate(0,86.5,113.5)"/><path d="M 82 127v 9h 4.5a 4.5 4.5, 0, 0, 0, 0 -9" transform="rotate(0,86.5,131.5)"/><rect x="82" y="145" width="9" height="9" transform="rotate(0,86.5,149.5)"/><path d="M 82 172v 9h 4.5a 4.5 4.5, 0, 0, 0, 0 -9" transform="rotate(180,86.5,176.5)"/><rect x="82" y="199" width="9" height="9" transform="rotate(0,86.5,203.5)"/><path d="M 91 28v 9h 4.5a 4.5 4.5, 0, 0, 0, 0 -9" transform="rotate(-90,95.5,32.5)"/><path d="M 91 37v 9h 4.5a 4.5 4.5, 0, 0, 0, 0 -9" transform="rotate(90,95.5,41.5)"/><circle cx="95.5" cy="77.5" r="4.5" transform="rotate(0,95.5,77.5)"/><circle cx="95.5" cy="104.5" r="4.5" transform="rotate(0,95.5,104.5)"/><path d="M 91 118v 9h 4.5a 4.5 4.5, 0, 0, 0, 0 -9" transform="rotate(180,95.5,122.5)"/><path d="M 91 145v 9h 4.5a 4.5 4.5, 0, 0, 0, 0 -9" transform="rotate(0,95.5,149.5)"/><rect x="91" y="172" width="9" height="9" transform="rotate(0,95.5,176.5)"/><path d="M 91 190v 9h 4.5a 4.5 4.5, 0, 0, 0, 0 -9" transform="rotate(-90,95.5,194.5)"/><rect x="91" y="199" width="9" height="9" transform="rotate(0,95.5,203.5)"/><path d="M 91 217v 9h 9a 9 9, 0, 0, 0, -9 -9" transform="rotate(-90,95.5,221.5)"/><path d="M 91 226v 9h 9a 9 9, 0, 0, 0, -9 -9" transform="rotate(180,95.5,230.5)"/><path d="M 91 244v 9h 4.5a 4.5 4.5, 0, 0, 0, 0 -9" transform="rotate(180,95.5,248.5)"/><path d="M 100 19v 9h 4.5a 4.5 4.5, 0, 0, 0, 0 -9" transform="rotate(180,104.5,23.5)"/><circle cx="104.5" cy="86.5" r="4.5" transform="rotate(0,104.5,86.5)"/><path d="M 100 118v 9h 4.5a 4.5 4.5, 0, 0, 0, 0 -9" transform="rotate(0,104.5,122.5)"/><path d="M 100 136v 9h 4.5a 4.5 4.5, 0, 0, 0, 0 -9" transform="rotate(180,104.5,140.5)"/><circle cx="104.5" cy="158.5" r="4.5" transform="rotate(0,104.5,158.5)"/><rect x="100" y="172" width="9" height="9" transform="rotate(0,104.5,176.5)"/><rect x="100" y="199" width="9" height="9" transform="rotate(0,104.5,203.5)"/><path d="M 100 217v 9h 9a 9 9, 0, 0, 0, -9 -9" transform="rotate(0,104.5,221.5)"/><rect x="100" y="226" width="9" height="9" transform="rotate(0,104.5,230.5)"/><path d="M 100 244v 9h 9a 9 9, 0, 0, 0, -9 -9" transform="rotate(0,104.5,248.5)"/><rect x="100" y="253" width="9" height="9" transform="rotate(0,104.5,257.5)"/><rect x="100" y="262" width="9" height="9" transform="rotate(0,104.5,266.5)"/><path d="M 100 271v 9h 9a 9 9, 0, 0, 0, -9 -9" transform="rotate(180,104.5,275.5)"/><path d="M 109 19v 9h 4.5a 4.5 4.5, 0, 0, 0, 0 -9" transform="rotate(0,113.5,23.5)"/><path d="M 109 37v 9h 4.5a 4.5 4.5, 0, 0, 0, 0 -9" transform="rotate(180,113.5,41.5)"/><path d="M 109 64v 9h 4.5a 4.5 4.5, 0, 0, 0, 0 -9" transform="rotate(-90,113.5,68.5)"/><path d="M 109 73v 9h 4.5a 4.5 4.5, 0, 0, 0, 0 -9" transform="rotate(90,113.5,77.5)"/><path d="M 109 109v 9h 4.5a 4.5 4.5, 0, 0, 0, 0 -9" transform="rotate(180,113.5,113.5)"/><rect x="109" y="136" width="9" height="9" transform="rotate(0,113.5,140.5)"/><path d="M 109 145v 9h 9a 9 9, 0, 0, 0, -9 -9" transform="rotate(180,113.5,149.5)"/><path d="M 109 172v 9h 4.5a 4.5 4.5, 0, 0, 0, 0 -9" transform="rotate(0,113.5,176.5)"/><rect x="109" y="199" width="9" height="9" transform="rotate(0,113.5,203.5)"/><path d="M 109 208v 9h 4.5a 4.5 4.5, 0, 0, 0, 0 -9" transform="rotate(90,113.5,212.5)"/><rect x="109" y="226" width="9" height="9" transform="rotate(0,113.5,230.5)"/><path d="M 109 235v 9h 4.5a 4.5 4.5, 0, 0, 0, 0 -9" transform="rotate(90,113.5,239.5)"/><path d="M 109 253v 9h 4.5a 4.5 4.5, 0, 0, 0, 0 -9" transform="rotate(0,113.5,257.5)"/><path d="M 109 271v 9h 4.5a 4.5 4.5, 0, 0, 0, 0 -9" transform="rotate(0,113.5,275.5)"/><path d="M 118 37v 9h 9a 9 9, 0, 0, 0, -9 -9" transform="rotate(0,122.5,41.5)"/><rect x="118" y="46" width="9" height="9" transform="rotate(0,122.5,50.5)"/><path d="M 118 55v 9h 4.5a 4.5 4.5, 0, 0, 0, 0 -9" transform="rotate(90,122.5,59.5)"/><path d="M 118 82v 9h 9a 9 9, 0, 0, 0, -9 -9" transform="rotate(-90,122.5,86.5)"/><rect x="118" y="91" width="9" height="9" transform="rotate(0,122.5,95.5)"/><rect x="118" y="100" width="9" height="9" transform="rotate(0,122.5,104.5)"/><rect x="118" y="109" width="9" height="9" transform="rotate(0,122.5,113.5)"/><path d="M 118 127v 9h 9a 9 9, 0, 0, 0, -9 -9" transform="rotate(-90,122.5,131.5)"/><rect x="118" y="136" width="9" height="9" transform="rotate(0,122.5,140.5)"/><rect x="118" y="145" width="9" height="9" transform="rotate(0,122.5,149.5)"/><path d="M 118 154v 9h 4.5a 4.5 4.5, 0, 0, 0, 0 -9" transform="rotate(90,122.5,158.5)"/><path d="M 118 181v 9h 4.5a 4.5 4.5, 0, 0, 0, 0 -9" transform="rotate(-90,122.5,185.5)"/><rect x="118" y="190" width="9" height="9" transform="rotate(0,122.5,194.5)"/><rect x="118" y="199" width="9" height="9" transform="rotate(0,122.5,203.5)"/><path d="M 118 217v 9h 9a 9 9, 0, 0, 0, -9 -9" transform="rotate(-90,122.5,221.5)"/><path d="M 118 226v 9h 9a 9 9, 0, 0, 0, -9 -9" transform="rotate(90,122.5,230.5)"/><circle cx="131.5" cy="32.5" r="4.5" transform="rotate(0,131.5,32.5)"/><path d="M 127 73v 9h 4.5a 4.5 4.5, 0, 0, 0, 0 -9" transform="rotate(-90,131.5,77.5)"/><rect x="127" y="82" width="9" height="9" transform="rotate(0,131.5,86.5)"/><path d="M 127 109v 9h 9a 9 9, 0, 0, 0, -9 -9" transform="rotate(0,131.5,113.5)"/><rect x="127" y="118" width="9" height="9" transform="rotate(0,131.5,122.5)"/><rect x="127" y="127" width="9" height="9" transform="rotate(0,131.5,131.5)"/><path d="M 127 145v 9h 4.5a 4.5 4.5, 0, 0, 0, 0 -9" transform="rotate(0,131.5,149.5)"/><circle cx="131.5" cy="167.5" r="4.5" transform="rotate(0,131.5,167.5)"/><rect x="127" y="199" width="9" height="9" transform="rotate(0,131.5,203.5)"/><rect x="127" y="208" width="9" height="9" transform="rotate(0,131.5,212.5)"/><rect x="127" y="217" width="9" height="9" transform="rotate(0,131.5,221.5)"/><path d="M 127 244v 9h 4.5a 4.5 4.5, 0, 0, 0, 0 -9" transform="rotate(180,131.5,248.5)"/><circle cx="131.5" cy="266.5" r="4.5" transform="rotate(0,131.5,266.5)"/><path d="M 136 19v 9h 4.5a 4.5 4.5, 0, 0, 0, 0 -9" transform="rotate(180,140.5,23.5)"/><circle cx="140.5" cy="50.5" r="4.5" transform="rotate(0,140.5,50.5)"/><path d="M 136 64v 9h 4.5a 4.5 4.5, 0, 0, 0, 0 -9" transform="rotate(180,140.5,68.5)"/><rect x="136" y="82" width="9" height="9" transform="rotate(0,140.5,86.5)"/><path d="M 136 91v 9h 4.5a 4.5 4.5, 0, 0, 0, 0 -9" transform="rotate(90,140.5,95.5)"/><path d="M 136 118v 9h 9a 9 9, 0, 0, 0, -9 -9" transform="rotate(0,140.5,122.5)"/><path d="M 136 127v 9h 9a 9 9, 0, 0, 0, -9 -9" transform="rotate(90,140.5,131.5)"/><path d="M 136 154v 9h 4.5a 4.5 4.5, 0, 0, 0, 0 -9" transform="rotate(180,140.5,158.5)"/><path d="M 136 181v 9h 9a 9 9, 0, 0, 0, -9 -9" transform="rotate(-90,140.5,185.5)"/><rect x="136" y="190" width="9" height="9" transform="rotate(0,140.5,194.5)"/><path d="M 136 199v 9h 9a 9 9, 0, 0, 0, -9 -9" transform="rotate(90,140.5,203.5)"/><rect x="136" y="217" width="9" height="9" transform="rotate(0,140.5,221.5)"/><rect x="136" y="244" width="9" height="9" transform="rotate(0,140.5,248.5)"/><path d="M 136 271v 9h 4.5a 4.5 4.5, 0, 0, 0, 0 -9" transform="rotate(180,140.5,275.5)"/><path d="M 145 19v 9h 9a 9 9, 0, 0, 0, -9 -9" transform="rotate(0,149.5,23.5)"/><rect x="145" y="28" width="9" height="9" transform="rotate(0,149.5,32.5)"/><path d="M 145 37v 9h 4.5a 4.5 4.5, 0, 0, 0, 0 -9" transform="rotate(90,149.5,41.5)"/><path d="M 145 64v 9h 9a 9 9, 0, 0, 0, -9 -9" transform="rotate(0,149.5,68.5)"/><rect x="145" y="73" width="9" height="9" transform="rotate(0,149.5,77.5)"/><rect x="145" y="82" width="9" height="9" transform="rotate(0,149.5,86.5)"/><circle cx="149.5" cy="113.5" r="4.5" transform="rotate(0,149.5,113.5)"/><path d="M 145 136v 9h 4.5a 4.5 4.5, 0, 0, 0, 0 -9" transform="rotate(-90,149.5,140.5)"/><rect x="145" y="145" width="9" height="9" transform="rotate(0,149.5,149.5)"/><rect x="145" y="154" width="9" height="9" transform="rotate(0,149.5,158.5)"/><rect x="145" y="163" width="9" height="9" transform="rotate(0,149.5,167.5)"/><rect x="145" y="172" width="9" height="9" transform="rotate(0,149.5,176.5)"/><rect x="145" y="181" width="9" height="9" transform="rotate(0,149.5,185.5)"/><rect x="145" y="190" width="9" height="9" transform="rotate(0,149.5,194.5)"/><rect x="145" y="217" width="9" height="9" transform="rotate(0,149.5,221.5)"/><rect x="145" y="244" width="9" height="9" transform="rotate(0,149.5,248.5)"/><path d="M 145 253v 9h 4.5a 4.5 4.5, 0, 0, 0, 0 -9" transform="rotate(90,149.5,257.5)"/><rect x="145" y="271" width="9" height="9" transform="rotate(0,149.5,275.5)"/><circle cx="158.5" cy="59.5" r="4.5" transform="rotate(0,158.5,59.5)"/><path d="M 154 82v 9h 4.5a 4.5 4.5, 0, 0, 0, 0 -9" transform="rotate(0,158.5,86.5)"/><circle cx="158.5" cy="104.5" r="4.5" transform="rotate(0,158.5,104.5)"/><path d="M 154 118v 9h 9a 9 9, 0, 0, 0, -9 -9" transform="rotate(-90,158.5,122.5)"/><path d="M 154 127v 9h 4.5a 4.5 4.5, 0, 0, 0, 0 -9" transform="rotate(90,158.5,131.5)"/><rect x="154" y="163" width="9" height="9" transform="rotate(0,158.5,167.5)"/><rect x="154" y="181" width="9" height="9" transform="rotate(0,158.5,185.5)"/><rect x="154" y="190" width="9" height="9" transform="rotate(0,158.5,194.5)"/><rect x="154" y="199" width="9" height="9" transform="rotate(0,158.5,203.5)"/><rect x="154" y="208" width="9" height="9" transform="rotate(0,158.5,212.5)"/><rect x="154" y="217" width="9" height="9" transform="rotate(0,158.5,221.5)"/><path d="M 154 244v 9h 4.5a 4.5 4.5, 0, 0, 0, 0 -9" transform="rotate(0,158.5,248.5)"/><path d="M 154 262v 9h 4.5a 4.5 4.5, 0, 0, 0, 0 -9" transform="rotate(-90,158.5,266.5)"/><path d="M 154 271v 9h 9a 9 9, 0, 0, 0, -9 -9" transform="rotate(90,158.5,275.5)"/><path d="M 163 37v 9h 4.5a 4.5 4.5, 0, 0, 0, 0 -9" transform="rotate(180,167.5,41.5)"/><path d="M 163 64v 9h 4.5a 4.5 4.5, 0, 0, 0, 0 -9" transform="rotate(-90,167.5,68.5)"/><path d="M 163 73v 9h 4.5a 4.5 4.5, 0, 0, 0, 0 -9" transform="rotate(90,167.5,77.5)"/><path d="M 163 91v 9h 4.5a 4.5 4.5, 0, 0, 0, 0 -9" transform="rotate(180,167.5,95.5)"/><path d="M 163 109v 9h 4.5a 4.5 4.5, 0, 0, 0, 0 -9" transform="rotate(-90,167.5,113.5)"/><rect x="163" y="118" width="9" height="9" transform="rotate(0,167.5,122.5)"/><path d="M 163 136v 9h 4.5a 4.5 4.5, 0, 0, 0, 0 -9" transform="rotate(180,167.5,140.5)"/><path d="M 163 154v 9h 4.5a 4.5 4.5, 0, 0, 0, 0 -9" transform="rotate(-90,167.5,158.5)"/><rect x="163" y="163" width="9" height="9" transform="rotate(0,167.5,167.5)"/><rect x="163" y="172" width="9" height="9" transform="rotate(0,167.5,176.5)"/><rect x="163" y="181" width="9" height="9" transform="rotate(0,167.5,185.5)"/><rect x="163" y="190" width="9" height="9" transform="rotate(0,167.5,194.5)"/><path d="M 163 199v 9h 9a 9 9, 0, 0, 0, -9 -9" transform="rotate(90,167.5,203.5)"/><rect x="163" y="217" width="9" height="9" transform="rotate(0,167.5,221.5)"/><path d="M 163 226v 9h 9a 9 9, 0, 0, 0, -9 -9" transform="rotate(180,167.5,230.5)"/><path d="M 172 28v 9h 9a 9 9, 0, 0, 0, -9 -9" transform="rotate(-90,176.5,32.5)"/><path d="M 172 37v 9h 9a 9 9, 0, 0, 0, -9 -9" transform="rotate(90,176.5,41.5)"/><circle cx="176.5" cy="59.5" r="4.5" transform="rotate(0,176.5,59.5)"/><rect x="172" y="91" width="9" height="9" transform="rotate(0,176.5,95.5)"/><rect x="172" y="118" width="9" height="9" transform="rotate(0,176.5,122.5)"/><rect x="172" y="127" width="9" height="9" transform="rotate(0,176.5,131.5)"/><rect x="172" y="136" width="9" height="9" transform="rotate(0,176.5,140.5)"/><path d="M 172 145v 9h 4.5a 4.5 4.5, 0, 0, 0, 0 -9" transform="rotate(90,176.5,149.5)"/><rect x="172" y="163" width="9" height="9" transform="rotate(0,176.5,167.5)"/><rect x="172" y="181" width="9" height="9" transform="rotate(0,176.5,185.5)"/><path d="M 172 217v 9h 9a 9 9, 0, 0, 0, -9 -9" transform="rotate(0,176.5,221.5)"/><path d="M 172 226v 9h 9a 9 9, 0, 0, 0, -9 -9" transform="rotate(90,176.5,230.5)"/><path d="M 172 244v 9h 4.5a 4.5 4.5, 0, 0, 0, 0 -9" transform="rotate(-90,176.5,248.5)"/><path d="M 172 253v 9h 4.5a 4.5 4.5, 0, 0, 0, 0 -9" transform="rotate(90,176.5,257.5)"/><path d="M 172 271v 9h 4.5a 4.5 4.5, 0, 0, 0, 0 -9" transform="rotate(180,176.5,275.5)"/><path d="M 181 19v 9h 4.5a 4.5 4.5, 0, 0, 0, 0 -9" transform="rotate(-90,185.5,23.5)"/><path d="M 181 28v 9h 9a 9 9, 0, 0, 0, -9 -9" transform="rotate(90,185.5,32.5)"/><path d="M 181 73v 9h 4.5a 4.5 4.5, 0, 0, 0, 0 -9" transform="rotate(-90,185.5,77.5)"/><rect x="181" y="82" width="9" height="9" transform="rotate(0,185.5,86.5)"/><path d="M 181 91v 9h 9a 9 9, 0, 0, 0, -9 -9" transform="rotate(90,185.5,95.5)"/><path d="M 181 109v 9h 9a 9 9, 0, 0, 0, -9 -9" transform="rotate(-90,185.5,113.5)"/><rect x="181" y="118" width="9" height="9" transform="rotate(0,185.5,122.5)"/><rect x="181" y="163" width="9" height="9" transform="rotate(0,185.5,167.5)"/><rect x="181" y="172" width="9" height="9" transform="rotate(0,185.5,176.5)"/><rect x="181" y="181" width="9" height="9" transform="rotate(0,185.5,185.5)"/><rect x="181" y="190" width="9" height="9" transform="rotate(0,185.5,194.5)"/><path d="M 181 199v 9h 9a 9 9, 0, 0, 0, -9 -9" transform="rotate(180,185.5,203.5)"/><path d="M 181 271v 9h 4.5a 4.5 4.5, 0, 0, 0, 0 -9" transform="rotate(0,185.5,275.5)"/><path d="M 190 46v 9h 4.5a 4.5 4.5, 0, 0, 0, 0 -9" transform="rotate(-90,194.5,50.5)"/><path d="M 190 55v 9h 9a 9 9, 0, 0, 0, -9 -9" transform="rotate(180,194.5,59.5)"/><path d="M 190 100v 9h 4.5a 4.5 4.5, 0, 0, 0, 0 -9" transform="rotate(-90,194.5,104.5)"/><rect x="190" y="109" width="9" height="9" transform="rotate(0,194.5,113.5)"/><path d="M 190 118v 9h 9a 9 9, 0, 0, 0, -9 -9" transform="rotate(90,194.5,122.5)"/><path d="M 190 136v 9h 4.5a 4.5 4.5, 0, 0, 0, 0 -9" transform="rotate(180,194.5,140.5)"/><path d="M 190 154v 9h 4.5a 4.5 4.5, 0, 0, 0, 0 -9" transform="rotate(-90,194.5,158.5)"/><rect x="190" y="163" width="9" height="9" transform="rotate(0,194.5,167.5)"/><path d="M 190 181v 9h 9a 9 9, 0, 0, 0, -9 -9" transform="rotate(0,194.5,185.5)"/><rect x="190" y="190" width="9" height="9" transform="rotate(0,194.5,194.5)"/><rect x="190" y="199" width="9" height="9" transform="rotate(0,194.5,203.5)"/><rect x="190" y="208" width="9" height="9" transform="rotate(0,194.5,212.5)"/><rect x="190" y="217" width="9" height="9" transform="rotate(0,194.5,221.5)"/><rect x="190" y="226" width="9" height="9" transform="rotate(0,194.5,230.5)"/><rect x="190" y="235" width="9" height="9" transform="rotate(0,194.5,239.5)"/><path d="M 190 244v 9h 9a 9 9, 0, 0, 0, -9 -9" transform="rotate(180,194.5,248.5)"/><path d="M 190 262v 9h 4.5a 4.5 4.5, 0, 0, 0, 0 -9" transform="rotate(180,194.5,266.5)"/><path d="M 199 19v 9h 4.5a 4.5 4.5, 0, 0, 0, 0 -9" transform="rotate(-90,203.5,23.5)"/><rect x="199" y="28" width="9" height="9" transform="rotate(0,203.5,32.5)"/><path d="M 199 37v 9h 4.5a 4.5 4.5, 0, 0, 0, 0 -9" transform="rotate(90,203.5,41.5)"/><path d="M 199 55v 9h 4.5a 4.5 4.5, 0, 0, 0, 0 -9" transform="rotate(0,203.5,59.5)"/><circle cx="203.5" cy="77.5" r="4.5" transform="rotate(0,203.5,77.5)"/><rect x="199" y="136" width="9" height="9" transform="rotate(0,203.5,140.5)"/><rect x="199" y="163" width="9" height="9" transform="rotate(0,203.5,167.5)"/><path d="M 199 190v 9h 9a 9 9, 0, 0, 0, -9 -9" transform="rotate(0,203.5,194.5)"/><rect x="199" y="199" width="9" height="9" transform="rotate(0,203.5,203.5)"/><rect x="199" y="208" width="9" height="9" transform="rotate(0,203.5,212.5)"/><rect x="199" y="217" width="9" height="9" transform="rotate(0,203.5,221.5)"/><rect x="199" y="226" width="9" height="9" transform="rotate(0,203.5,230.5)"/><rect x="199" y="235" width="9" height="9" transform="rotate(0,203.5,239.5)"/><rect x="199" y="244" width="9" height="9" transform="rotate(0,203.5,248.5)"/><rect x="199" y="253" width="9" height="9" transform="rotate(0,203.5,257.5)"/><path d="M 199 262v 9h 9a 9 9, 0, 0, 0, -9 -9" transform="rotate(90,203.5,266.5)"/><circle cx="212.5" cy="95.5" r="4.5" transform="rotate(0,212.5,95.5)"/><path d="M 208 118v 9h 4.5a 4.5 4.5, 0, 0, 0, 0 -9" transform="rotate(-90,212.5,122.5)"/><rect x="208" y="127" width="9" height="9" transform="rotate(0,212.5,131.5)"/><path d="M 208 136v 9h 9a 9 9, 0, 0, 0, -9 -9" transform="rotate(90,212.5,140.5)"/><path d="M 208 154v 9h 9a 9 9, 0, 0, 0, -9 -9" transform="rotate(-90,212.5,158.5)"/><rect x="208" y="163" width="9" height="9" transform="rotate(0,212.5,167.5)"/><rect x="208" y="172" width="9" height="9" transform="rotate(0,212.5,176.5)"/><path d="M 208 181v 9h 4.5a 4.5 4.5, 0, 0, 0, 0 -9" transform="rotate(90,212.5,185.5)"/><rect x="208" y="199" width="9" height="9" transform="rotate(0,212.5,203.5)"/><rect x="208" y="235" width="9" height="9" transform="rotate(0,212.5,239.5)"/><rect x="208" y="244" width="9" height="9" transform="rotate(0,212.5,248.5)"/><path d="M 208 271v 9h 4.5a 4.5 4.5, 0, 0, 0, 0 -9" transform="rotate(180,212.5,275.5)"/><path d="M 217 100v 9h 9a 9 9, 0, 0, 0, -9 -9" transform="rotate(-90,221.5,104.5)"/><path d="M 217 109v 9h 9a 9 9, 0, 0, 0, -9 -9" transform="rotate(180,221.5,113.5)"/><path d="M 217 145v 9h 9a 9 9, 0, 0, 0, -9 -9" transform="rotate(-90,221.5,149.5)"/><rect x="217" y="154" width="9" height="9" transform="rotate(0,221.5,158.5)"/><rect x="217" y="163" width="9" height="9" transform="rotate(0,221.5,167.5)"/><rect x="217" y="199" width="9" height="9" transform="rotate(0,221.5,203.5)"/><circle cx="221.5" cy="221.5" r="4.5" transform="rotate(0,221.5,221.5)"/><rect x="217" y="235" width="9" height="9" transform="rotate(0,221.5,239.5)"/><rect x="217" y="244" width="9" height="9" transform="rotate(0,221.5,248.5)"/><path d="M 217 253v 9h 4.5a 4.5 4.5, 0, 0, 0, 0 -9" transform="rotate(90,221.5,257.5)"/><rect x="217" y="271" width="9" height="9" transform="rotate(0,221.5,275.5)"/><path d="M 226 100v 9h 9a 9 9, 0, 0, 0, -9 -9" transform="rotate(0,230.5,104.5)"/><path d="M 226 109v 9h 9a 9 9, 0, 0, 0, -9 -9" transform="rotate(90,230.5,113.5)"/><path d="M 226 136v 9h 4.5a 4.5 4.5, 0, 0, 0, 0 -9" transform="rotate(-90,230.5,140.5)"/><rect x="226" y="145" width="9" height="9" transform="rotate(0,230.5,149.5)"/><rect x="226" y="154" width="9" height="9" transform="rotate(0,230.5,158.5)"/><rect x="226" y="163" width="9" height="9" transform="rotate(0,230.5,167.5)"/><path d="M 226 172v 9h 9a 9 9, 0, 0, 0, -9 -9" transform="rotate(180,230.5,176.5)"/><path d="M 226 190v 9h 9a 9 9, 0, 0, 0, -9 -9" transform="rotate(-90,230.5,194.5)"/><rect x="226" y="199" width="9" height="9" transform="rotate(0,230.5,203.5)"/><rect x="226" y="235" width="9" height="9" transform="rotate(0,230.5,239.5)"/><path d="M 226 244v 9h 9a 9 9, 0, 0, 0, -9 -9" transform="rotate(90,230.5,248.5)"/><path d="M 226 262v 9h 9a 9 9, 0, 0, 0, -9 -9" transform="rotate(-90,230.5,266.5)"/><rect x="226" y="271" width="9" height="9" transform="rotate(0,230.5,275.5)"/><path d="M 235 118v 9h 4.5a 4.5 4.5, 0, 0, 0, 0 -9" transform="rotate(180,239.5,122.5)"/><rect x="235" y="145" width="9" height="9" transform="rotate(0,239.5,149.5)"/><path d="M 235 172v 9h 4.5a 4.5 4.5, 0, 0, 0, 0 -9" transform="rotate(0,239.5,176.5)"/><rect x="235" y="190" width="9" height="9" transform="rotate(0,239.5,194.5)"/><rect x="235" y="199" width="9" height="9" transform="rotate(0,239.5,203.5)"/><rect x="235" y="208" width="9" height="9" transform="rotate(0,239.5,212.5)"/><rect x="235" y="217" width="9" height="9" transform="rotate(0,239.5,221.5)"/><rect x="235" y="226" width="9" height="9" transform="rotate(0,239.5,230.5)"/><rect x="235" y="235" width="9" height="9" transform="rotate(0,239.5,239.5)"/><rect x="235" y="262" width="9" height="9" transform="rotate(0,239.5,266.5)"/><path d="M 235 271v 9h 9a 9 9, 0, 0, 0, -9 -9" transform="rotate(90,239.5,275.5)"/><rect x="244" y="118" width="9" height="9" transform="rotate(0,248.5,122.5)"/><path d="M 244 145v 9h 4.5a 4.5 4.5, 0, 0, 0, 0 -9" transform="rotate(0,248.5,149.5)"/><path d="M 244 190v 9h 9a 9 9, 0, 0, 0, -9 -9" transform="rotate(0,248.5,194.5)"/><path d="M 244 199v 9h 9a 9 9, 0, 0, 0, -9 -9" transform="rotate(90,248.5,203.5)"/><path d="M 244 226v 9h 9a 9 9, 0, 0, 0, -9 -9" transform="rotate(0,248.5,230.5)"/><rect x="244" y="235" width="9" height="9" transform="rotate(0,248.5,239.5)"/><rect x="244" y="244" width="9" height="9" transform="rotate(0,248.5,248.5)"/><rect x="244" y="253" width="9" height="9" transform="rotate(0,248.5,257.5)"/><rect x="244" y="262" width="9" height="9" transform="rotate(0,248.5,266.5)"/><path d="M 253 91v 9h 9a 9 9, 0, 0, 0, -9 -9" transform="rotate(-90,257.5,95.5)"/><path d="M 253 100v 9h 4.5a 4.5 4.5, 0, 0, 0, 0 -9" transform="rotate(90,257.5,104.5)"/><path d="M 253 118v 9h 4.5a 4.5 4.5, 0, 0, 0, 0 -9" transform="rotate(0,257.5,122.5)"/><circle cx="257.5" cy="158.5" r="4.5" transform="rotate(0,257.5,158.5)"/><circle cx="257.5" cy="185.5" r="4.5" transform="rotate(0,257.5,185.5)"/><circle cx="257.5" cy="212.5" r="4.5" transform="rotate(0,257.5,212.5)"/><path d="M 253 235v 9h 9a 9 9, 0, 0, 0, -9 -9" transform="rotate(0,257.5,239.5)"/><rect x="253" y="244" width="9" height="9" transform="rotate(0,257.5,248.5)"/><path d="M 253 262v 9h 9a 9 9, 0, 0, 0, -9 -9" transform="rotate(0,257.5,266.5)"/><path d="M 253 271v 9h 4.5a 4.5 4.5, 0, 0, 0, 0 -9" transform="rotate(90,257.5,275.5)"/><path d="M 262 91v 9h 4.5a 4.5 4.5, 0, 0, 0, 0 -9" transform="rotate(0,266.5,95.5)"/><path d="M 262 127v 9h 4.5a 4.5 4.5, 0, 0, 0, 0 -9" transform="rotate(-90,266.5,131.5)"/><path d="M 262 136v 9h 9a 9 9, 0, 0, 0, -9 -9" transform="rotate(180,266.5,140.5)"/><path d="M 262 190v 9h 9a 9 9, 0, 0, 0, -9 -9" transform="rotate(-90,266.5,194.5)"/><path d="M 262 199v 9h 9a 9 9, 0, 0, 0, -9 -9" transform="rotate(180,266.5,203.5)"/><rect x="262" y="244" width="9" height="9" transform="rotate(0,266.5,248.5)"/><path d="M 271 136v 9h 4.5a 4.5 4.5, 0, 0, 0, 0 -9" transform="rotate(0,275.5,140.5)"/><path d="M 271 154v 9h 4.5a 4.5 4.5, 0, 0, 0, 0 -9" transform="rotate(-90,275.5,158.5)"/><path d="M 271 163v 9h 4.5a 4.5 4.5, 0, 0, 0, 0 -9" transform="rotate(90,275.5,167.5)"/><path d="M 271 181v 9h 4.5a 4.5 4.5, 0, 0, 0, 0 -9" transform="rotate(-90,275.5,185.5)"/><rect x="271" y="190" width="9" height="9" transform="rotate(0,275.5,194.5)"/><path d="M 271 199v 9h 9a 9 9, 0, 0, 0, -9 -9" transform="rotate(90,275.5,203.5)"/><path d="M 271 217v 9h 4.5a 4.5 4.5, 0, 0, 0, 0 -9" transform="rotate(-90,275.5,221.5)"/><rect x="271" y="226" width="9" height="9" transform="rotate(0,275.5,230.5)"/><rect x="271" y="235" width="9" height="9" transform="rotate(0,275.5,239.5)"/><path d="M 271 244v 9h 9a 9 9, 0, 0, 0, -9 -9" transform="rotate(90,275.5,248.5)"/><circle cx="275.5" cy="275.5" r="4.5" transform="rotate(0,275.5,275.5)"/></clipPath><clipPath id="clip-path-corners-square-color-0-0"><path clip-rule="evenodd" d="M 50.5 19a 31.5 31.5 0 1 0 0.1 0zm 0 9a 22.5 22.5 0 1 1 -0.1 0Z" transform="rotate(0,50.5,50.5)"/></clipPath><clipPath id="clip-path-corners-dot-color-0-0"><circle cx="50.5" cy="50.5" r="13.5" transform="rotate(0,50.5,50.5)"/></clipPath><clipPath id="clip-path-corners-square-color-1-0"><path clip-rule="evenodd" d="M 248.5 19a 31.5 31.5 0 1 0 0.1 0zm 0 9a 22.5 22.5 0 1 1 -0.1 0Z" transform="rotate(90,248.5,50.5)"/></clipPath><clipPath id="clip-path-corners-dot-color-1-0"><circle cx="248.5" cy="50.5" r="13.5" transform="rotate(90,248.5,50.5)"/></clipPath><clipPath id="clip-path-corners-square-color-0-1"><path clip-rule="evenodd" d="M 50.5 217a 31.5 31.5 0 1 0 0.1 0zm 0 9a 22.5 22.5 0 1 1 -0.1 0Z" transform="rotate(-90,50.5,248.5)"/></clipPath><clipPath id="clip-path-corners-dot-color-0-1"><circle cx="50.5" cy="248.5" r="13.5" transform="rotate(-90,50.5,248.5)"/></clipPath></defs><rect x="0" y="0" height="300" width="300" clip-path="url('#clip-path-background-color')" fill="#ffffff" style="transform: scale(1) translate(0px, 0px);"/><rect x="0" y="0" height="300" width="300" clip-path="url('#clip-path-dot-color')" fill="#000000" style="transform: scale(1) translate(0px, 0px);"/><rect x="19" y="19" height="63" width="63" clip-path="url('#clip-path-corners-square-color-0-0')" fill="#000000" style="transform: scale(1) translate(0px, 0px);"/><rect x="37" y="37" height="27" width="27" clip-path="url('#clip-path-corners-dot-color-0-0')" fill="#000000" style="transform: scale(1) translate(0px, 0px);"/><rect x="217" y="19" height="63" width="63" clip-path="url('#clip-path-corners-square-color-1-0')" fill="#000000" style="transform: scale(1) translate(0px, 0px);"/><rect x="235" y="37" height="27" width="27" clip-path="url('#clip-path-corners-dot-color-1-0')" fill="#000000" style="transform: scale(1) translate(0px, 0px);"/><rect x="19" y="217" height="63" width="63" clip-path="url('#clip-path-corners-square-color-0-1')" fill="#000000" style="transform: scale(1) translate(0px, 0px);"/><rect x="37" y="235" height="27" width="27" clip-path="url('#clip-path-corners-dot-color-0-1')" fill="#000000" style="transform: scale(1) translate(0px, 0px);"/></svg></svg></svg>